<?xml version="1.0" encoding="UTF-8"?>
<svg xmlns="http://www.w3.org/2000/svg" xmlns:xlink="http://www.w3.org/1999/xlink" width="375pt" height="374.999991pt" viewBox="0 0 375 374.999991" version="1.2">
<defs>
<clipPath id="clip1">
  <path d="M 81 111 L 299 111 L 299 333 L 81 333 Z M 81 111 "/>
</clipPath>
<clipPath id="clip2">
  <path d="M 121.0625 94.214844 L 309.777344 133.449219 L 265.050781 348.597656 L 76.335938 309.367188 Z M 121.0625 94.214844 "/>
</clipPath>
<clipPath id="clip3">
  <path d="M 121.0625 94.214844 L 309.777344 133.449219 L 265.050781 348.597656 L 76.335938 309.367188 Z M 121.0625 94.214844 "/>
</clipPath>
<clipPath id="clip4">
  <path d="M 60 27 L 266 27 L 266 105 L 60 105 Z M 60 27 "/>
</clipPath>
<clipPath id="clip5">
  <path d="M 49.863281 49.984375 L 258.195312 2.167969 L 287.222656 128.628906 L 78.890625 176.445312 Z M 49.863281 49.984375 "/>
</clipPath>
<clipPath id="clip6">
  <path d="M 49.863281 49.984375 L 258.195312 2.167969 L 287.222656 128.628906 L 78.890625 176.445312 Z M 49.863281 49.984375 "/>
</clipPath>
<clipPath id="clip7">
  <path d="M 58 26 L 267 26 L 267 107 L 58 107 Z M 58 26 "/>
</clipPath>
<clipPath id="clip8">
  <path d="M 49.863281 49.984375 L 258.195312 2.167969 L 287.222656 128.628906 L 78.890625 176.445312 Z M 49.863281 49.984375 "/>
</clipPath>
<clipPath id="clip9">
  <path d="M 49.863281 49.984375 L 258.195312 2.167969 L 287.222656 128.628906 L 78.890625 176.445312 Z M 49.863281 49.984375 "/>
</clipPath>
<clipPath id="clip10">
  <path d="M 60 43 L 273 43 L 273 133 L 60 133 Z M 60 43 "/>
</clipPath>
<clipPath id="clip11">
  <path d="M 49.863281 49.984375 L 258.195312 2.167969 L 287.222656 128.628906 L 78.890625 176.445312 Z M 49.863281 49.984375 "/>
</clipPath>
<clipPath id="clip12">
  <path d="M 49.863281 49.984375 L 258.195312 2.167969 L 287.222656 128.628906 L 78.890625 176.445312 Z M 49.863281 49.984375 "/>
</clipPath>
<clipPath id="clip13">
  <path d="M 59 41 L 275 41 L 275 134 L 59 134 Z M 59 41 "/>
</clipPath>
<clipPath id="clip14">
  <path d="M 49.863281 49.984375 L 258.195312 2.167969 L 287.222656 128.628906 L 78.890625 176.445312 Z M 49.863281 49.984375 "/>
</clipPath>
<clipPath id="clip15">
  <path d="M 49.863281 49.984375 L 258.195312 2.167969 L 287.222656 128.628906 L 78.890625 176.445312 Z M 49.863281 49.984375 "/>
</clipPath>
<clipPath id="clip16">
  <path d="M 109 84 L 241 84 L 241 155 L 109 155 Z M 109 84 "/>
</clipPath>
<clipPath id="clip17">
  <path d="M 49.863281 49.984375 L 258.195312 2.167969 L 287.222656 128.628906 L 78.890625 176.445312 Z M 49.863281 49.984375 "/>
</clipPath>
<clipPath id="clip18">
  <path d="M 49.863281 49.984375 L 258.195312 2.167969 L 287.222656 128.628906 L 78.890625 176.445312 Z M 49.863281 49.984375 "/>
</clipPath>
<clipPath id="clip19">
  <path d="M 107 82 L 243 82 L 243 156 L 107 156 Z M 107 82 "/>
</clipPath>
<clipPath id="clip20">
  <path d="M 49.863281 49.984375 L 258.195312 2.167969 L 287.222656 128.628906 L 78.890625 176.445312 Z M 49.863281 49.984375 "/>
</clipPath>
<clipPath id="clip21">
  <path d="M 49.863281 49.984375 L 258.195312 2.167969 L 287.222656 128.628906 L 78.890625 176.445312 Z M 49.863281 49.984375 "/>
</clipPath>
<clipPath id="clip22">
  <path d="M 226 119 L 298 119 L 298 209 L 226 209 Z M 226 119 "/>
</clipPath>
<clipPath id="clip23">
  <path d="M 242.363281 119.40625 L 309.183594 133.296875 L 293.460938 208.929688 L 226.636719 195.039062 Z M 242.363281 119.40625 "/>
</clipPath>
<clipPath id="clip24">
  <path d="M 120.3125 93.757812 L 309.027344 132.988281 L 264.300781 348.140625 L 75.585938 308.90625 Z M 120.3125 93.757812 "/>
</clipPath>
<clipPath id="clip25">
  <path d="M 72 118 L 101 118 L 101 132 L 72 132 Z M 72 118 "/>
</clipPath>
<clipPath id="clip26">
  <path d="M 72.992188 119.773438 L 98.476562 118.894531 L 100.472656 176.609375 L 74.988281 177.488281 Z M 72.992188 119.773438 "/>
</clipPath>
<clipPath id="clip27">
  <path d="M -106.394531 54.210938 L 107.226562 46.824219 L 111.710938 176.496094 L -101.910156 183.882812 Z M -106.394531 54.210938 "/>
</clipPath>
<clipPath id="clip28">
  <path d="M 72 118 L 101 118 L 101 133 L 72 133 Z M 72 118 "/>
</clipPath>
<clipPath id="clip29">
  <path d="M 72.992188 119.773438 L 98.476562 118.894531 L 100.472656 176.609375 L 74.988281 177.488281 Z M 72.992188 119.773438 "/>
</clipPath>
<clipPath id="clip30">
  <path d="M -106.394531 54.210938 L 107.226562 46.824219 L 111.710938 176.496094 L -101.910156 183.882812 Z M -106.394531 54.210938 "/>
</clipPath>
<clipPath id="clip31">
  <path d="M 72 118 L 101 118 L 101 174 L 72 174 Z M 72 118 "/>
</clipPath>
<clipPath id="clip32">
  <path d="M 72.992188 119.773438 L 98.476562 118.894531 L 100.472656 176.609375 L 74.988281 177.488281 Z M 72.992188 119.773438 "/>
</clipPath>
<clipPath id="clip33">
  <path d="M -106.394531 54.210938 L 107.226562 46.824219 L 111.710938 176.496094 L -101.910156 183.882812 Z M -106.394531 54.210938 "/>
</clipPath>
<clipPath id="clip34">
  <path d="M 72 118 L 101 118 L 101 175 L 72 175 Z M 72 118 "/>
</clipPath>
<clipPath id="clip35">
  <path d="M 72.992188 119.773438 L 98.476562 118.894531 L 100.472656 176.609375 L 74.988281 177.488281 Z M 72.992188 119.773438 "/>
</clipPath>
<clipPath id="clip36">
  <path d="M -106.394531 54.210938 L 107.226562 46.824219 L 111.710938 176.496094 L -101.910156 183.882812 Z M -106.394531 54.210938 "/>
</clipPath>
<clipPath id="clip37">
  <path d="M 72 100 L 100 100 L 100 113 L 72 113 Z M 72 100 "/>
</clipPath>
<clipPath id="clip38">
  <path d="M 72.242188 101.152344 L 99.226562 100.21875 L 99.875 118.957031 L 72.890625 119.890625 Z M 72.242188 101.152344 "/>
</clipPath>
<clipPath id="clip39">
  <path d="M -107.144531 35.585938 L 106.476562 28.199219 L 110.960938 157.875 L -102.660156 165.261719 Z M -107.144531 35.585938 "/>
</clipPath>
<clipPath id="clip40">
  <path d="M 72 100 L 100 100 L 100 115 L 72 115 Z M 72 100 "/>
</clipPath>
<clipPath id="clip41">
  <path d="M 72.242188 101.152344 L 99.226562 100.21875 L 99.875 118.957031 L 72.890625 119.890625 Z M 72.242188 101.152344 "/>
</clipPath>
<clipPath id="clip42">
  <path d="M -107.144531 35.585938 L 106.476562 28.199219 L 110.960938 157.875 L -102.660156 165.261719 Z M -107.144531 35.585938 "/>
</clipPath>
<clipPath id="clip43">
  <path d="M 72 100 L 100 100 L 100 120 L 72 120 Z M 72 100 "/>
</clipPath>
<clipPath id="clip44">
  <path d="M 72.242188 101.152344 L 99.226562 100.21875 L 99.875 118.957031 L 72.890625 119.890625 Z M 72.242188 101.152344 "/>
</clipPath>
<clipPath id="clip45">
  <path d="M -107.144531 35.585938 L 106.476562 28.199219 L 110.960938 157.875 L -102.660156 165.261719 Z M -107.144531 35.585938 "/>
</clipPath>
</defs>
<g id="surface1">
<path style=" stroke:none;fill-rule:nonzero;fill:rgb(0%,0%,0%);fill-opacity:1;" d="M 187.5 0 C 184.429688 0 181.363281 0.0742188 178.300781 0.226562 C 175.234375 0.375 172.175781 0.601562 169.121094 0.902344 C 166.066406 1.203125 163.023438 1.578125 159.988281 2.03125 C 156.953125 2.480469 153.929688 3.003906 150.921875 3.601562 C 147.910156 4.203125 144.917969 4.875 141.941406 5.617188 C 138.964844 6.363281 136.007812 7.183594 133.070312 8.074219 C 130.136719 8.964844 127.222656 9.925781 124.332031 10.960938 C 121.445312 11.996094 118.582031 13.097656 115.746094 14.273438 C 112.910156 15.445312 110.105469 16.691406 107.332031 18.003906 C 104.558594 19.3125 101.820312 20.691406 99.113281 22.140625 C 96.40625 23.585938 93.738281 25.097656 91.105469 26.675781 C 88.472656 28.253906 85.882812 29.894531 83.332031 31.597656 C 80.777344 33.304688 78.269531 35.070312 75.804688 36.898438 C 73.339844 38.726562 70.921875 40.613281 68.550781 42.558594 C 66.179688 44.507812 63.855469 46.511719 61.582031 48.570312 C 59.308594 50.632812 57.085938 52.746094 54.917969 54.917969 C 52.746094 57.085938 50.632812 59.308594 48.570312 61.582031 C 46.511719 63.855469 44.507812 66.179688 42.558594 68.550781 C 40.613281 70.921875 38.726562 73.339844 36.898438 75.804688 C 35.070312 78.269531 33.304688 80.777344 31.597656 83.332031 C 29.894531 85.882812 28.253906 88.472656 26.675781 91.105469 C 25.097656 93.738281 23.585938 96.40625 22.140625 99.113281 C 20.691406 101.820312 19.3125 104.558594 18.003906 107.332031 C 16.691406 110.105469 15.445312 112.910156 14.273438 115.746094 C 13.097656 118.582031 11.996094 121.445312 10.960938 124.332031 C 9.925781 127.222656 8.964844 130.136719 8.074219 133.070312 C 7.183594 136.007812 6.363281 138.964844 5.621094 141.941406 C 4.875 144.917969 4.203125 147.910156 3.601562 150.921875 C 3.003906 153.929688 2.480469 156.953125 2.03125 159.988281 C 1.578125 163.023438 1.203125 166.066406 0.902344 169.121094 C 0.601562 172.175781 0.375 175.234375 0.226562 178.300781 C 0.0742188 181.363281 0 184.429688 0 187.5 C 0 190.570312 0.0742188 193.636719 0.226562 196.699219 C 0.375 199.765625 0.601562 202.824219 0.902344 205.878906 C 1.203125 208.933594 1.578125 211.976562 2.03125 215.011719 C 2.480469 218.046875 3.003906 221.070312 3.601562 224.078125 C 4.203125 227.089844 4.875 230.082031 5.621094 233.058594 C 6.363281 236.035156 7.183594 238.992188 8.074219 241.929688 C 8.964844 244.863281 9.925781 247.777344 10.960938 250.667969 C 11.996094 253.554688 13.097656 256.417969 14.273438 259.253906 C 15.445312 262.089844 16.691406 264.890625 18.003906 267.667969 C 19.3125 270.441406 20.691406 273.179688 22.140625 275.886719 C 23.585938 278.59375 25.097656 281.261719 26.675781 283.894531 C 28.253906 286.527344 29.894531 289.117188 31.597656 291.667969 C 33.304688 294.222656 35.070312 296.730469 36.898438 299.195312 C 38.726562 301.660156 40.613281 304.078125 42.558594 306.449219 C 44.507812 308.820312 46.511719 311.144531 48.570312 313.417969 C 50.632812 315.691406 52.746094 317.914062 54.917969 320.082031 C 57.085938 322.253906 59.308594 324.367188 61.582031 326.429688 C 63.855469 328.488281 66.179688 330.492188 68.550781 332.4375 C 70.921875 334.386719 73.339844 336.273438 75.804688 338.101562 C 78.269531 339.929688 80.777344 341.695312 83.332031 343.402344 C 85.882812 345.105469 88.472656 346.746094 91.105469 348.324219 C 93.738281 349.902344 96.40625 351.414062 99.113281 352.859375 C 101.820312 354.308594 104.558594 355.6875 107.332031 356.996094 C 110.105469 358.308594 112.910156 359.554688 115.746094 360.726562 C 118.582031 361.902344 121.445312 363.003906 124.332031 364.039062 C 127.222656 365.074219 130.136719 366.035156 133.070312 366.925781 C 136.007812 367.816406 138.964844 368.636719 141.941406 369.378906 C 144.917969 370.125 147.910156 370.796875 150.921875 371.398438 C 153.929688 371.996094 156.953125 372.519531 159.988281 372.96875 C 163.023438 373.421875 166.066406 373.796875 169.121094 374.097656 C 172.175781 374.398438 175.234375 374.625 178.300781 374.773438 C 181.363281 374.925781 184.429688 375 187.5 375 C 190.570312 375 193.636719 374.925781 196.699219 374.773438 C 199.765625 374.625 202.824219 374.398438 205.878906 374.097656 C 208.933594 373.796875 211.976562 373.421875 215.011719 372.96875 C 218.046875 372.519531 221.070312 371.996094 224.078125 371.398438 C 227.089844 370.796875 230.082031 370.125 233.058594 369.378906 C 236.035156 368.636719 238.992188 367.816406 241.929688 366.925781 C 244.863281 366.035156 247.777344 365.074219 250.667969 364.039062 C 253.554688 363.003906 256.417969 361.902344 259.253906 360.726562 C 262.089844 359.554688 264.890625 358.308594 267.667969 356.996094 C 270.441406 355.6875 273.179688 354.308594 275.886719 352.859375 C 278.59375 351.414062 281.261719 349.902344 283.894531 348.324219 C 286.527344 346.746094 289.117188 345.105469 291.667969 343.402344 C 294.222656 341.695312 296.730469 339.929688 299.195312 338.101562 C 301.660156 336.273438 304.078125 334.386719 306.449219 332.4375 C 308.820312 330.492188 311.144531 328.488281 313.417969 326.429688 C 315.691406 324.367188 317.914062 322.253906 320.082031 320.082031 C 322.253906 317.914062 324.367188 315.691406 326.429688 313.417969 C 328.488281 311.144531 330.492188 308.820312 332.4375 306.449219 C 334.386719 304.078125 336.273438 301.660156 338.101562 299.195312 C 339.929688 296.730469 341.695312 294.222656 343.402344 291.667969 C 345.105469 289.117188 346.746094 286.527344 348.324219 283.894531 C 349.902344 281.261719 351.414062 278.59375 352.859375 275.886719 C 354.308594 273.179688 355.6875 270.441406 356.996094 267.667969 C 358.308594 264.890625 359.554688 262.089844 360.726562 259.253906 C 361.902344 256.417969 363.003906 253.554688 364.039062 250.667969 C 365.074219 247.777344 366.035156 244.863281 366.925781 241.929688 C 367.816406 238.992188 368.636719 236.035156 369.378906 233.058594 C 370.125 230.082031 370.796875 227.089844 371.398438 224.078125 C 371.996094 221.070312 372.519531 218.046875 372.96875 215.011719 C 373.421875 211.976562 373.796875 208.933594 374.097656 205.878906 C 374.398438 202.824219 374.625 199.765625 374.773438 196.699219 C 374.925781 193.636719 375 190.570312 375 187.5 C 375 184.429688 374.925781 181.363281 374.773438 178.300781 C 374.625 175.234375 374.398438 172.175781 374.097656 169.121094 C 373.796875 166.066406 373.421875 163.023438 372.96875 159.988281 C 372.519531 156.953125 371.996094 153.929688 371.398438 150.921875 C 370.796875 147.910156 370.125 144.917969 369.378906 141.941406 C 368.636719 138.964844 367.816406 136.007812 366.925781 133.070312 C 366.035156 130.136719 365.074219 127.222656 364.039062 124.332031 C 363.003906 121.445312 361.902344 118.582031 360.726562 115.746094 C 359.554688 112.910156 358.308594 110.105469 356.996094 107.332031 C 355.6875 104.558594 354.308594 101.820312 352.859375 99.113281 C 351.414062 96.40625 349.902344 93.738281 348.324219 91.105469 C 346.746094 88.472656 345.105469 85.882812 343.402344 83.332031 C 341.695312 80.777344 339.929688 78.269531 338.101562 75.804688 C 336.273438 73.339844 334.386719 70.921875 332.4375 68.550781 C 330.492188 66.179688 328.488281 63.855469 326.429688 61.582031 C 324.367188 59.308594 322.253906 57.085938 320.082031 54.917969 C 317.914062 52.746094 315.691406 50.632812 313.417969 48.570312 C 311.144531 46.511719 308.820312 44.507812 306.449219 42.558594 C 304.078125 40.613281 301.660156 38.726562 299.195312 36.898438 C 296.730469 35.070312 294.222656 33.304688 291.667969 31.597656 C 289.117188 29.894531 286.527344 28.253906 283.894531 26.675781 C 281.261719 25.097656 278.59375 23.585938 275.886719 22.140625 C 273.179688 20.691406 270.441406 19.3125 267.667969 18.003906 C 264.890625 16.691406 262.089844 15.445312 259.253906 14.273438 C 256.417969 13.097656 253.554688 11.996094 250.667969 10.960938 C 247.777344 9.925781 244.863281 8.964844 241.929688 8.074219 C 238.992188 7.183594 236.035156 6.363281 233.058594 5.617188 C 230.082031 4.875 227.089844 4.203125 224.078125 3.601562 C 221.070312 3.003906 218.046875 2.480469 215.011719 2.03125 C 211.976562 1.578125 208.933594 1.203125 205.878906 0.902344 C 202.824219 0.601562 199.765625 0.375 196.699219 0.226562 C 193.636719 0.0742188 190.570312 0 187.5 0 Z M 187.5 0 "/>
<g clip-path="url(#clip1)" clip-rule="nonzero">
<g clip-path="url(#clip2)" clip-rule="nonzero">
<g clip-path="url(#clip3)" clip-rule="nonzero">
<path style=" stroke:none;fill-rule:nonzero;fill:rgb(57.249451%,21.569824%,30.198669%);fill-opacity:1;" d="M 279.832031 277.0625 C 290.332031 226.558594 244.257812 207.015625 213.757812 193.949219 C 203.921875 189.785156 187.46875 182.753906 188.214844 179.171875 C 189.183594 174.515625 199.402344 175.023438 208.824219 176.980469 C 224.921875 180.328125 241.246094 188.578125 257.367188 201.394531 L 262.496094 205.453125 L 298.675781 152.316406 L 294.570312 148.722656 C 276.988281 133.359375 250.542969 121.132812 222.160156 115.234375 C 192.464844 109.058594 166.3125 110.972656 146.457031 120.917969 C 127.726562 130.226562 115.152344 146.421875 110.933594 166.71875 C 100.382812 217.460938 146.023438 237.289062 176.261719 250.425781 C 186.976562 255.144531 203.070312 262.101562 202.226562 266.160156 C 201.65625 268.90625 193.769531 269.136719 181.964844 266.679688 C 161.929688 262.515625 139.894531 251.210938 124.429688 237.035156 L 119.425781 232.382812 L 81.335938 285.742188 L 85.175781 289.40625 C 103.484375 306.664062 135.332031 321.632812 168.484375 328.523438 C 198.0625 334.671875 224.355469 332.664062 244.238281 322.597656 C 262.96875 313.289062 275.660156 297.121094 279.832031 277.0625 Z M 279.832031 277.0625 "/>
</g>
</g>
</g>
<g clip-path="url(#clip4)" clip-rule="nonzero">
<g clip-path="url(#clip5)" clip-rule="nonzero">
<g clip-path="url(#clip6)" clip-rule="nonzero">
<path style=" stroke:none;fill-rule:nonzero;fill:rgb(57.249451%,21.569824%,30.198669%);fill-opacity:1;" d="M 265.230469 39.847656 L 154.410156 27.605469 L 60.019531 86.949219 L 172.117188 104.753906 L 265.230469 39.847656 "/>
</g>
</g>
</g>
<g clip-path="url(#clip7)" clip-rule="nonzero">
<g clip-path="url(#clip8)" clip-rule="nonzero">
<g clip-path="url(#clip9)" clip-rule="nonzero">
<path style=" stroke:none;fill-rule:nonzero;fill:rgb(0%,0%,0%);fill-opacity:1;" d="M 265.230469 39.847656 L 265.40625 38.289062 L 154.582031 26.046875 C 154.226562 26.007812 153.871094 26.089844 153.574219 26.277344 L 59.183594 85.621094 C 58.628906 85.96875 58.347656 86.625 58.480469 87.265625 C 58.609375 87.902344 59.125 88.394531 59.769531 88.5 L 171.867188 106.300781 C 172.269531 106.367188 172.679688 106.273438 173.011719 106.039062 L 266.128906 41.132812 C 266.664062 40.757812 266.914062 40.09375 266.753906 39.460938 C 266.589844 38.828125 266.054688 38.359375 265.40625 38.289062 L 265.230469 39.847656 L 264.332031 38.5625 L 171.738281 103.105469 L 64.386719 86.054688 L 154.78125 29.226562 L 265.058594 41.40625 L 265.230469 39.847656 L 264.332031 38.5625 L 265.230469 39.847656 "/>
</g>
</g>
</g>
<g clip-path="url(#clip10)" clip-rule="nonzero">
<g clip-path="url(#clip11)" clip-rule="nonzero">
<g clip-path="url(#clip12)" clip-rule="nonzero">
<path style=" stroke:none;fill-rule:nonzero;fill:rgb(57.249451%,21.569824%,30.198669%);fill-opacity:1;" d="M 60.773438 90.230469 L 63.441406 101.867188 L 175.539062 119.660156 L 245.695312 70.769531 L 254 106.9375 L 252.730469 107.230469 L 252.617188 132.058594 L 272.949219 127.394531 L 262.261719 105.042969 L 260.742188 105.390625 L 251.816406 66.503906 L 268.65625 54.765625 L 265.984375 43.128906 L 172.871094 108.035156 L 60.773438 90.230469 "/>
</g>
</g>
</g>
<g clip-path="url(#clip13)" clip-rule="nonzero">
<g clip-path="url(#clip14)" clip-rule="nonzero">
<g clip-path="url(#clip15)" clip-rule="nonzero">
<path style=" stroke:none;fill-rule:nonzero;fill:rgb(0%,0%,0%);fill-opacity:1;" d="M 60.773438 90.230469 L 59.242188 90.582031 L 61.914062 102.21875 C 62.054688 102.84375 62.5625 103.316406 63.195312 103.417969 L 175.289062 121.210938 C 175.691406 121.273438 176.101562 121.179688 176.433594 120.949219 L 244.683594 73.382812 L 252.46875 107.289062 L 254 106.9375 L 253.648438 105.410156 L 252.378906 105.703125 C 251.667969 105.863281 251.164062 106.496094 251.160156 107.222656 L 251.050781 132.050781 C 251.046875 132.527344 251.265625 132.984375 251.636719 133.285156 C 252.011719 133.582031 252.503906 133.695312 252.96875 133.585938 L 273.296875 128.921875 C 273.761719 128.8125 274.152344 128.503906 274.359375 128.074219 C 274.566406 127.644531 274.570312 127.144531 274.363281 126.714844 L 263.675781 104.367188 C 263.359375 103.703125 262.625 103.347656 261.910156 103.511719 L 260.390625 103.863281 L 260.742188 105.390625 L 262.269531 105.039062 L 253.582031 67.183594 L 269.550781 56.050781 C 270.078125 55.6875 270.328125 55.039062 270.183594 54.414062 L 267.511719 42.777344 C 267.398438 42.269531 267.035156 41.851562 266.550781 41.664062 C 266.0625 41.476562 265.515625 41.542969 265.085938 41.84375 L 172.492188 106.386719 L 61.015625 88.683594 C 60.503906 88.601562 59.976562 88.78125 59.625 89.160156 C 59.269531 89.539062 59.125 90.074219 59.242188 90.582031 L 60.773438 90.230469 L 60.523438 91.78125 L 172.621094 109.582031 C 173.023438 109.648438 173.433594 109.554688 173.765625 109.320312 L 264.976562 45.746094 L 266.890625 54.085938 L 250.917969 65.214844 C 250.394531 65.582031 250.140625 66.230469 250.285156 66.855469 L 259.210938 105.742188 C 259.304688 106.144531 259.558594 106.5 259.90625 106.722656 C 260.257812 106.9375 260.6875 107.011719 261.09375 106.917969 L 261.386719 106.851562 L 270.6875 126.300781 L 254.195312 130.085938 L 254.292969 108.480469 L 254.347656 108.464844 C 254.75 108.375 255.109375 108.121094 255.328125 107.773438 C 255.546875 107.421875 255.621094 106.988281 255.527344 106.585938 L 247.226562 70.417969 C 247.109375 69.910156 246.746094 69.488281 246.261719 69.304688 C 245.777344 69.117188 245.222656 69.183594 244.800781 69.480469 L 175.160156 118.011719 L 64.738281 100.484375 L 62.300781 89.878906 L 60.773438 90.230469 L 60.523438 91.78125 L 60.773438 90.230469 "/>
</g>
</g>
</g>
<g clip-path="url(#clip16)" clip-rule="nonzero">
<g clip-path="url(#clip17)" clip-rule="nonzero">
<g clip-path="url(#clip18)" clip-rule="nonzero">
<path style=" stroke:none;fill-rule:nonzero;fill:rgb(57.249451%,21.569824%,30.198669%);fill-opacity:1;" d="M 109.097656 112.683594 L 117.394531 148.832031 C 117.394531 148.832031 144.957031 159.667969 182.730469 151 C 226.140625 141.035156 240.582031 120.554688 240.582031 120.554688 L 232.285156 84.40625 L 176.398438 123.414062 L 109.097656 112.683594 "/>
</g>
</g>
</g>
<g clip-path="url(#clip19)" clip-rule="nonzero">
<g clip-path="url(#clip20)" clip-rule="nonzero">
<g clip-path="url(#clip21)" clip-rule="nonzero">
<path style=" stroke:none;fill-rule:nonzero;fill:rgb(0%,0%,0%);fill-opacity:1;" d="M 109.097656 112.683594 L 107.566406 113.03125 L 115.863281 149.183594 C 115.976562 149.683594 116.335938 150.097656 116.816406 150.289062 C 116.90625 150.324219 123.914062 153.070312 135.675781 154.71875 C 147.441406 156.363281 163.972656 156.914062 183.082031 152.527344 C 204.976562 147.503906 219.640625 139.804688 228.839844 133.320312 C 238.039062 126.839844 241.773438 121.582031 241.863281 121.457031 C 242.121094 121.089844 242.210938 120.636719 242.113281 120.203125 L 233.8125 84.054688 C 233.699219 83.546875 233.332031 83.128906 232.847656 82.941406 C 232.363281 82.753906 231.8125 82.824219 231.386719 83.121094 L 176.023438 121.769531 L 109.34375 111.132812 C 108.828125 111.050781 108.304688 111.230469 107.949219 111.609375 C 107.59375 111.988281 107.449219 112.523438 107.566406 113.03125 L 109.097656 112.683594 L 108.847656 114.230469 L 176.152344 124.964844 C 176.550781 125.03125 176.960938 124.9375 177.296875 124.703125 L 231.273438 87.023438 L 239.050781 120.90625 L 240.582031 120.554688 L 239.296875 119.652344 L 239.777344 119.988281 L 239.300781 119.648438 L 239.296875 119.652344 L 239.777344 119.988281 L 239.300781 119.648438 C 239.277344 119.679688 235.710938 124.683594 226.824219 130.902344 C 217.933594 137.125 203.726562 144.566406 182.378906 149.46875 C 163.714844 153.753906 147.574219 153.214844 136.113281 151.609375 C 130.386719 150.808594 125.828125 149.742188 122.710938 148.875 C 121.152344 148.445312 119.957031 148.0625 119.152344 147.792969 C 118.753906 147.65625 118.453125 147.546875 118.253906 147.476562 C 118.152344 147.4375 118.078125 147.410156 118.03125 147.394531 L 117.980469 147.375 L 117.96875 147.371094 L 117.394531 148.832031 L 118.921875 148.480469 L 110.625 112.332031 L 109.097656 112.683594 L 108.847656 114.230469 L 109.097656 112.683594 "/>
</g>
</g>
</g>
<path style=" stroke:none;fill-rule:nonzero;fill:rgb(0%,0%,0%);fill-opacity:1;" d="M 234.585938 76.699219 L 262.550781 56.867188 L 291.3125 97.421875 L 263.347656 117.253906 Z M 234.585938 76.699219 "/>
<g clip-path="url(#clip22)" clip-rule="nonzero">
<g clip-path="url(#clip23)" clip-rule="nonzero">
<g clip-path="url(#clip24)" clip-rule="nonzero">
<path style=" stroke:none;fill-rule:nonzero;fill:rgb(57.249451%,21.569824%,30.198669%);fill-opacity:1;" d="M 279.082031 276.605469 C 289.582031 226.101562 243.507812 206.558594 213.007812 193.492188 C 203.171875 189.328125 186.71875 182.296875 187.464844 178.714844 C 188.433594 174.058594 198.652344 174.5625 208.074219 176.523438 C 224.171875 179.871094 240.496094 188.121094 256.617188 200.9375 L 261.746094 204.992188 L 297.925781 151.855469 L 293.820312 148.261719 C 276.238281 132.898438 249.792969 120.675781 221.410156 114.773438 C 191.714844 108.601562 165.5625 110.515625 145.707031 120.460938 C 126.976562 129.769531 114.402344 145.964844 110.183594 166.261719 C 99.632812 217.003906 145.273438 236.828125 175.511719 249.964844 C 186.226562 254.683594 202.320312 261.644531 201.476562 265.703125 C 200.90625 268.449219 193.019531 268.675781 181.214844 266.222656 C 161.179688 262.058594 139.144531 250.75 123.679688 236.574219 L 118.675781 231.921875 L 80.585938 285.285156 L 84.425781 288.949219 C 102.734375 306.207031 134.582031 321.171875 167.734375 328.066406 C 197.3125 334.214844 223.605469 332.207031 243.488281 322.140625 C 262.21875 312.832031 274.910156 296.664062 279.082031 276.605469 Z M 279.082031 276.605469 "/>
</g>
</g>
</g>
<path style=" stroke:none;fill-rule:nonzero;fill:rgb(0%,0%,0%);fill-opacity:1;" d="M 243.875 111.726562 L 260.675781 81.84375 L 304.015625 106.207031 L 287.214844 136.089844 Z M 243.875 111.726562 "/>
<path style=" stroke:none;fill-rule:nonzero;fill:rgb(0%,0%,0%);fill-opacity:1;" d="M 256.953125 125.410156 L 272.367188 94.789062 L 316.777344 117.140625 L 301.363281 147.765625 Z M 256.953125 125.410156 "/>
<path style=" stroke:none;fill-rule:nonzero;fill:rgb(0%,0%,0%);fill-opacity:1;" d="M 244.980469 120 L 258.042969 88.304688 L 304.007812 107.25 L 290.945312 138.945312 Z M 244.980469 120 "/>
<path style=" stroke:none;fill-rule:nonzero;fill:rgb(0%,0%,0%);fill-opacity:1;" d="M 244.792969 120.71875 L 258.335938 89.226562 L 304.007812 108.867188 L 290.464844 140.363281 Z M 244.792969 120.71875 "/>
<g clip-path="url(#clip25)" clip-rule="nonzero">
<g clip-path="url(#clip26)" clip-rule="nonzero">
<g clip-path="url(#clip27)" clip-rule="nonzero">
<path style=" stroke:none;fill-rule:nonzero;fill:rgb(57.249451%,21.569824%,30.198669%);fill-opacity:1;" d="M 106.980469 85.152344 L 0.496094 52.089844 L -103.445312 92.429688 L 3.234375 131.195312 L 106.980469 85.152344 "/>
</g>
</g>
</g>
<g clip-path="url(#clip28)" clip-rule="nonzero">
<g clip-path="url(#clip29)" clip-rule="nonzero">
<g clip-path="url(#clip30)" clip-rule="nonzero">
<path style=" stroke:none;fill-rule:nonzero;fill:rgb(0%,0%,0%);fill-opacity:1;" d="M 106.980469 85.152344 L 107.445312 83.65625 L 0.964844 50.589844 C 0.625 50.488281 0.257812 50.5 -0.0703125 50.628906 L -104.011719 90.96875 C -104.621094 91.203125 -105.019531 91.792969 -105.015625 92.445312 C -105.007812 93.097656 -104.597656 93.679688 -103.980469 93.902344 L 2.695312 132.667969 C 3.078125 132.808594 3.496094 132.796875 3.871094 132.628906 L 107.617188 86.585938 C 108.214844 86.320312 108.585938 85.714844 108.546875 85.0625 C 108.507812 84.410156 108.070312 83.851562 107.445312 83.65625 L 106.980469 85.152344 L 106.34375 83.71875 L 3.175781 129.507812 L -98.984375 92.378906 L 0.554688 53.75 L 106.515625 86.648438 L 106.980469 85.152344 L 106.34375 83.71875 L 106.980469 85.152344 "/>
</g>
</g>
</g>
<g clip-path="url(#clip31)" clip-rule="nonzero">
<g clip-path="url(#clip32)" clip-rule="nonzero">
<g clip-path="url(#clip33)" clip-rule="nonzero">
<path style=" stroke:none;fill-rule:nonzero;fill:rgb(57.249451%,21.569824%,30.198669%);fill-opacity:1;" d="M -103.328125 95.792969 L -102.914062 107.726562 L 3.761719 146.484375 L 81.925781 111.800781 L 83.210938 148.890625 L 81.910156 148.9375 L 77.085938 173.292969 L 97.929688 172.574219 L 91.683594 148.597656 L 90.125 148.652344 L 88.746094 108.777344 L 107.507812 100.449219 L 107.097656 88.519531 L 3.351562 134.558594 L -103.328125 95.792969 "/>
</g>
</g>
</g>
<g clip-path="url(#clip34)" clip-rule="nonzero">
<g clip-path="url(#clip35)" clip-rule="nonzero">
<g clip-path="url(#clip36)" clip-rule="nonzero">
<path style=" stroke:none;fill-rule:nonzero;fill:rgb(0%,0%,0%);fill-opacity:1;" d="M -103.328125 95.792969 L -104.898438 95.847656 L -104.484375 107.78125 C -104.460938 108.421875 -104.054688 108.984375 -103.453125 109.199219 L 3.222656 147.957031 C 3.605469 148.097656 4.027344 148.082031 4.398438 147.917969 L 80.4375 114.179688 L 81.640625 148.945312 L 83.210938 148.890625 L 83.15625 147.324219 L 81.855469 147.367188 C 81.125 147.394531 80.511719 147.917969 80.371094 148.628906 L 75.546875 172.988281 C 75.453125 173.453125 75.582031 173.945312 75.890625 174.308594 C 76.199219 174.671875 76.664062 174.875 77.140625 174.859375 L 97.984375 174.136719 C 98.460938 174.121094 98.902344 173.890625 99.1875 173.507812 C 99.472656 173.128906 99.570312 172.636719 99.449219 172.175781 L 93.203125 148.203125 C 93.015625 147.492188 92.363281 147.003906 91.628906 147.03125 L 90.070312 147.085938 L 90.125 148.652344 L 91.691406 148.597656 L 90.351562 109.78125 L 108.144531 101.882812 C 108.730469 101.625 109.097656 101.035156 109.074219 100.394531 L 108.664062 88.464844 C 108.644531 87.945312 108.367188 87.464844 107.929688 87.191406 C 107.488281 86.910156 106.933594 86.875 106.457031 87.085938 L 3.292969 132.871094 L -102.792969 94.320312 C -103.28125 94.140625 -103.832031 94.21875 -104.25 94.527344 C -104.671875 94.832031 -104.914062 95.328125 -104.898438 95.847656 L -103.328125 95.792969 L -103.863281 97.269531 L 2.8125 136.035156 C 3.195312 136.175781 3.613281 136.160156 3.984375 135.992188 L 105.609375 90.894531 L 105.902344 99.449219 L 88.109375 107.34375 C 87.523438 107.601562 87.15625 108.191406 87.175781 108.832031 L 88.554688 148.707031 C 88.570312 149.117188 88.75 149.515625 89.050781 149.800781 C 89.355469 150.078125 89.765625 150.234375 90.179688 150.21875 L 90.480469 150.207031 L 95.917969 171.070312 L 79.007812 171.65625 L 83.207031 150.460938 L 83.265625 150.457031 C 83.675781 150.441406 84.074219 150.261719 84.359375 149.960938 C 84.640625 149.660156 84.792969 149.25 84.78125 148.835938 L 83.496094 111.75 C 83.480469 111.230469 83.203125 110.746094 82.761719 110.472656 C 82.320312 110.199219 81.765625 110.15625 81.292969 110.367188 L 3.703125 144.792969 L -101.382812 106.617188 L -101.757812 95.738281 L -103.328125 95.792969 L -103.863281 97.269531 L -103.328125 95.792969 "/>
</g>
</g>
</g>
<g clip-path="url(#clip37)" clip-rule="nonzero">
<g clip-path="url(#clip38)" clip-rule="nonzero">
<g clip-path="url(#clip39)" clip-rule="nonzero">
<path style=" stroke:none;fill-rule:nonzero;fill:rgb(57.249451%,21.569824%,30.198669%);fill-opacity:1;" d="M 106.230469 66.53125 L -0.253906 33.464844 L -104.195312 73.808594 L 2.484375 112.574219 L 106.230469 66.53125 "/>
</g>
</g>
</g>
<g clip-path="url(#clip40)" clip-rule="nonzero">
<g clip-path="url(#clip41)" clip-rule="nonzero">
<g clip-path="url(#clip42)" clip-rule="nonzero">
<path style=" stroke:none;fill-rule:nonzero;fill:rgb(0%,0%,0%);fill-opacity:1;" d="M 106.230469 66.53125 L 106.695312 65.035156 L 0.214844 31.96875 C -0.125 31.863281 -0.492188 31.878906 -0.820312 32.003906 L -104.761719 72.347656 C -105.371094 72.582031 -105.769531 73.171875 -105.765625 73.824219 C -105.757812 74.476562 -105.347656 75.058594 -104.730469 75.28125 L 1.945312 114.046875 C 2.328125 114.1875 2.746094 114.171875 3.121094 114.007812 L 106.867188 67.964844 C 107.464844 67.699219 107.835938 67.089844 107.796875 66.441406 C 107.757812 65.789062 107.320312 65.226562 106.695312 65.035156 L 106.230469 66.53125 L 105.59375 65.097656 L 2.425781 110.882812 L -99.734375 73.757812 L -0.195312 35.128906 L 105.765625 68.027344 L 106.230469 66.53125 L 105.59375 65.097656 L 106.230469 66.53125 "/>
</g>
</g>
</g>
<g clip-path="url(#clip43)" clip-rule="nonzero">
<g clip-path="url(#clip44)" clip-rule="nonzero">
<g clip-path="url(#clip45)" clip-rule="nonzero">
<path style=" stroke:none;fill-rule:nonzero;fill:rgb(57.249451%,21.569824%,30.198669%);fill-opacity:1;" d="M -104.078125 77.171875 L -103.664062 89.105469 L 3.011719 127.859375 L 81.175781 93.179688 L 82.460938 130.269531 L 81.160156 130.316406 L 76.335938 154.671875 L 97.179688 153.949219 L 90.933594 129.976562 L 89.375 130.03125 L 87.996094 90.15625 L 106.757812 81.828125 L 106.347656 69.894531 L 2.601562 115.9375 L -104.078125 77.171875 "/>
<path style=" stroke:none;fill-rule:nonzero;fill:rgb(0%,0%,0%);fill-opacity:1;" d="M -104.078125 77.171875 L -105.648438 77.226562 L -105.234375 89.160156 C -105.210938 89.796875 -104.804688 90.359375 -104.203125 90.578125 L 2.472656 129.335938 C 2.855469 129.476562 3.277344 129.460938 3.648438 129.292969 L 79.6875 95.558594 L 80.890625 130.324219 L 82.460938 130.269531 L 82.40625 128.703125 L 81.105469 128.746094 C 80.375 128.773438 79.761719 129.292969 79.621094 130.007812 L 74.796875 154.367188 C 74.703125 154.832031 74.832031 155.324219 75.140625 155.6875 C 75.449219 156.050781 75.914062 156.253906 76.390625 156.238281 L 97.234375 155.515625 C 97.710938 155.5 98.152344 155.269531 98.4375 154.886719 C 98.722656 154.507812 98.820312 154.015625 98.699219 153.554688 L 92.453125 129.582031 C 92.265625 128.871094 91.613281 128.382812 90.878906 128.410156 L 89.320312 128.460938 L 89.375 130.03125 L 90.941406 129.976562 L 89.601562 91.160156 L 107.394531 83.261719 C 107.980469 83.003906 108.347656 82.414062 108.324219 81.773438 L 107.914062 69.84375 C 107.894531 69.324219 107.617188 68.84375 107.179688 68.566406 C 106.738281 68.289062 106.183594 68.25 105.707031 68.460938 L 2.542969 114.25 L -103.542969 75.699219 C -104.03125 75.519531 -104.582031 75.597656 -105 75.90625 C -105.421875 76.210938 -105.664062 76.707031 -105.648438 77.226562 L -104.078125 77.171875 L -104.613281 78.644531 L 2.0625 117.414062 C 2.445312 117.550781 2.863281 117.539062 3.234375 117.371094 L 104.859375 72.273438 L 105.152344 80.828125 L 87.359375 88.722656 C 86.773438 88.980469 86.40625 89.570312 86.425781 90.210938 L 87.804688 130.085938 C 87.820312 130.496094 88 130.894531 88.300781 131.175781 C 88.605469 131.457031 89.015625 131.609375 89.429688 131.597656 L 89.730469 131.585938 L 95.167969 152.449219 L 78.257812 153.035156 L 82.457031 131.835938 L 82.515625 131.835938 C 82.925781 131.820312 83.324219 131.640625 83.609375 131.339844 C 83.890625 131.039062 84.042969 130.628906 84.03125 130.214844 L 82.746094 93.125 C 82.730469 92.605469 82.453125 92.125 82.011719 91.847656 C 81.570312 91.578125 81.015625 91.535156 80.542969 91.746094 L 2.953125 126.167969 L -102.132812 87.992188 L -102.507812 77.117188 L -104.078125 77.171875 L -104.613281 78.644531 L -104.078125 77.171875 "/>
</g>
</g>
</g>
<path style=" stroke:none;fill-rule:nonzero;fill:rgb(57.249451%,21.569824%,30.198669%);fill-opacity:1;" d="M 73.210938 94.851562 L 102.488281 99.078125 L 101.519531 105.789062 L 72.242188 101.5625 Z M 73.210938 94.851562 "/>
</g>
</svg>
